<svg xmlns="http://www.w3.org/2000/svg" xmlns:xlink="http://www.w3.org/1999/xlink" version="1.1" width="1410.24pt" height="425.197pt" viewBox="0 0 1410.24 425.197">
<defs>
<clipPath id="clip_0">
<path transform="matrix(1,0,0,-1,0,425.197)" d="M0 425.197H1410.236V0H0Z"/>
</clipPath>
</defs>
<g id="layer_1" data-name="">
<g clip-path="url(#clip_0)">
<path transform="matrix(1,0,0,-1,161.9905,287.3639)" d="M0 0C-.876-11.688-14.699-21.872-31.682-21.872V26.083C-14.122 26.083 1.479 19.744 0 0M-7.392 32.253H-80.528V-56.325H-31.682V-33.57H-7.392C16.962-33.57 45.844-24.506 45.844-.594 45.844 18.048 28.486 32.253-7.392 32.253" fill="#053776" fill-rule="evenodd"/>
<path transform="matrix(1,0,0,-1,213.2517,255.1007)" d="M0 0V-88.579H46.977V-46.989L83.637-88.579H130.423L94.084-47.054 130.423 0H82.356L46.977-45.189V0Z" fill="#053776" fill-rule="evenodd"/>
<path transform="matrix(1,0,0,-1,132.2171,173.28279)" d="M0 0C3.782-8.205 6.736-16.202 9.503-25.128 11.195-20.076 13.019-15.198 15.016-10.187 19.574 1.248 25.333 12.219 32.765 21.625 44.251 36.161 60.041 47.555 80.353 54.866 80.358 54.864 80.363 54.863 80.368 54.861 80.373 54.863 80.378 54.864 80.383 54.866 100.695 47.555 116.485 36.161 127.971 21.625 135.403 12.219 141.162 1.248 145.72-10.187 147.717-15.198 149.543-20.076 151.235-25.129 154.002-16.203 156.954-8.205 160.735 0 166.637 12.8 174.158 24.469 183.94 34.213 193.995 44.229 206.974 51.794 222.101 57.761V102.417H165.398V67H108.715V102.417H80.368 52.021V67H-4.672V102.417H-61.364V57.751C-46.237 51.794-33.259 44.229-23.205 34.213-13.422 24.469-5.901 12.8 0 0" fill="#053776"/>
<path transform="matrix(1,0,0,-1,347.2307,244.47179)" d="M0 0H-57.815C-55.72 12.278-53.011 26.058-49.672 38.073-44.369 56.983-37.037 75.04-24.402 90.208-17.659 98.152-9.296 104.444 0 109.238ZM0-102.771H-269.292V-7.103L-.001-7.102ZM-269.292 109.221C-259.997 104.428-251.632 98.152-244.889 90.208-232.254 75.04-224.922 56.983-219.62 38.073-216.28 26.058-213.573 12.278-211.477 0H-269.292ZM-197.034 12.992C-195.004 23.891-192.451 34.725-188.981 45.23H-161.618V27.17L-157.82 21.987-153.958 27.17V45.23H-138.443V27.174L-134.645 21.987-130.849 27.174V45.23H-115.333V27.17L-111.471 21.987-107.673 27.17V45.23H-80.311C-76.84 34.725-74.287 23.891-72.258 12.992L-69.702 0H-199.245ZM-170.717 82.525C-167.968 86.07-164.891 89.616-161.618 92.834V92.768 52.913H-186.297C-182.305 63.353-177.329 73.333-170.717 82.525M-153.958 99.465C-149.179 103.143-143.942 106.163-138.443 108.264V52.913H-153.958ZM-130.849 108.264C-125.35 106.163-120.113 103.143-115.333 99.465V52.913H-130.849ZM-107.673 92.768V92.834C-104.4 89.616-101.323 86.07-98.574 82.525-91.962 73.333-86.986 63.353-82.994 52.913H-107.673ZM-63.78 7.088C-73.208 64.739-94.974 105.703-134.645 117.654-174.318 105.703-196.083 64.733-205.51 7.083-214.871 66.112-236.641 108.067-276.378 120.214V-109.858H-134.645 7.087V120.214C-32.651 108.067-54.419 66.117-63.78 7.088" fill="#053776"/>
<path transform="matrix(1,0,0,-1,438.967,117.9845)" d="M0 0V-17.595H12.182C17.433-17.595 20.71-13.689 20.71-8.776 20.71-3.485 17.265 0 12.182 0ZM13.148-29.227H0V-45.394H-13.82V11.632H13.148C25.456 11.632 34.866 3.401 34.866-8.818 34.866-20.996 25.456-29.227 13.148-29.227" fill="#053776"/>
<path transform="matrix(1,0,0,-1,488.8938,143.2218)" d="M0 0C0-5.459 3.528-9.28 8.569-9.28 13.61-9.28 17.139-5.459 17.139 0 17.139 5.459 13.61 9.28 8.569 9.28 3.528 9.28 0 5.459 0 0M30.245 0C30.245-12.01 21.046-20.996 8.569-20.996-3.907-20.996-13.106-12.01-13.106 0-13.106 12.01-3.907 20.996 8.569 20.996 21.046 20.996 30.245 12.01 30.245 0" fill="#053776"/>
<path transform="matrix(1,0,0,-1,0,425.197)" d="M538.036 261.819H524.804V320.944H538.036Z" fill="#053776"/>
<path transform="matrix(1,0,0,-1,0,425.197)" d="M559.037 261.819H545.805V302.132H559.037ZM545.133 314.519C545.133 318.802 548.073 321.784 552.359 321.784 556.644 321.784 559.668 318.844 559.668 314.519 559.668 310.236 556.644 307.297 552.359 307.297 548.115 307.297 545.133 310.236 545.133 314.519" fill="#053776"/>
<path transform="matrix(1,0,0,-1,582.9758,133.85749)" d="M0 0V-13.018C0-19.862 6.091-19.274 12.476-17.763L13.4-28.513C10.46-29.604 6.049-30.36 2.688-30.36-6.554-30.36-13.232-25.909-13.232-15.159V0H-19.66V10.792H-13.232V23.726H-.42V10.792H10.964V0Z" fill="#053776"/>
<path transform="matrix(1,0,0,-1,626.3684,138.85459)" d="M0 0C0 3.149-2.646 6.131-7.099 6.131-11.972 6.131-14.702 3.317-15.038 0ZM11.006-21.752C7.855-23.558 2.101-25.363-4.074-25.363-19.029-25.363-27.977-17.049-27.977-4.367-27.977 8.314-19.197 16.629-7.309 16.629 4.369 16.629 14.745 8.944 11.805-7.769H-15.08C-14.408-12.43-9.409-14.193-3.99-14.193 1.345-14.193 6.638-13.06 9.2-11.842Z" fill="#053776"/>
<path transform="matrix(1,0,0,-1,664.5198,122.22568)" d="M0 0C4.621 0 8.317-.63 13.274-2.688L12.309-13.941C9.368-12.724 5.755-11.968 2.353-11.968-3.696-11.968-9.073-14.193-9.073-20.996-9.073-26.833-4.326-29.856 1.639-29.856 6.007-29.856 8.695-28.891 12.477-27.085L13.778-38.675C9.116-40.9 5.461-41.992 .168-41.992-12.729-41.992-22.306-33.426-22.306-21.08-22.306-7.223-12.477 0 0 0" fill="#053776"/>
<path transform="matrix(1,0,0,-1,697.4797,126.5509)" d="M0 0C2.898 3.065 7.436 4.325 11.847 4.325 19.45 4.325 26.759-1.008 26.759-10.624V-36.827H13.526V-14.403C13.526-9.91 9.956-7.769 6.764-7.769 3.445-7.769 .042-9.91 .042-14.403V-36.827H-13.232V22.298H0Z" fill="#053776"/>
<path transform="matrix(1,0,0,-1,758.4856,163.37799)" d="M0 0V22.424C0 26.917-3.57 29.059-6.763 29.059-10.081 29.059-13.484 26.917-13.484 22.424V0H-26.717V40.313H-14.576L-14.156 36.071C-11.3 39.683-6.427 41.152-1.68 41.152 5.924 41.152 13.232 35.819 13.232 26.203V0Z" fill="#053776"/>
<path transform="matrix(1,0,0,-1,0,425.197)" d="M792.334 261.819H779.102V302.132H792.334ZM778.43 314.519C778.43 318.802 781.37 321.784 785.656 321.784 789.941 321.784 792.965 318.844 792.965 314.519 792.965 310.236 789.941 307.297 785.656 307.297 781.412 307.297 778.43 310.236 778.43 314.519" fill="#053776"/>
<path transform="matrix(1,0,0,-1,813.3362,136.67099)" d="M0 0H5.167L13.064 13.605H27.81L15.585-5.921 30.834-26.707H14.997L4.747-11.548H0V-26.707H-13.232V32.418H0Z" fill="#053776"/>
<path transform="matrix(1,0,0,-1,856.2522,143.2638)" d="M0 0C0-5.459 3.57-9.28 8.695-9.28 13.82-9.28 17.391-5.459 17.391 0 17.391 5.459 13.82 9.238 8.695 9.28 3.57 9.28 0 5.459 0 0M17.853-20.114 17.433-15.873C15.122-18.729 11.216-20.954 5.545-20.954-5.209-20.954-13.106-12.052-13.106 0-13.106 12.052-5.209 21.038 5.545 21.038 11.216 21.038 15.122 18.771 17.433 15.957L17.853 20.198H30.665V-20.114Z" fill="#053776"/>
<path transform="matrix(1,0,0,-1,939.5745,129.7843)" d="M0 0 13.148 23.348H28.481L11.132-6.047 32.304-33.594H15.291L-.84-11.632H-8.695V-33.594H-22.516V23.432H-8.695V0Z" fill="#053776"/>
<path transform="matrix(1,0,0,-1,998.4758,122.22568)" d="M0 0C1.597 0 3.234-.294 4.915-.84L4.117-12.388C2.437-11.8 .714-11.506-.966-11.506-5.965-11.506-10.208-14.235-10.208-21.752V-41.152H-23.44V-.84H-10.964L-10.544-6.341C-8.653-2.352-4.663 0 0 0" fill="#053776"/>
<path transform="matrix(1,0,0,-1,1018.2141,143.2638)" d="M0 0C0-5.459 3.57-9.28 8.695-9.28 13.82-9.28 17.391-5.459 17.391 0 17.391 5.459 13.82 9.238 8.695 9.28 3.57 9.28 0 5.459 0 0M17.853-20.114 17.433-15.873C15.122-18.729 11.216-20.954 5.545-20.954-5.209-20.954-13.106-12.052-13.106 0-13.106 12.052-5.209 21.038 5.545 21.038 11.216 21.038 15.122 18.771 17.433 15.957L17.853 20.198H30.665V-20.114Z" fill="#053776"/>
<path transform="matrix(1,0,0,-1,1069.8508,136.67099)" d="M0 0H5.167L13.064 13.605H27.81L15.585-5.921 30.834-26.707H14.997L4.747-11.548H0V-26.707H-13.232V32.418H0Z" fill="#053776"/>
<path transform="matrix(1,0,0,-1,1112.3811,143.2218)" d="M0 0C0-5.459 3.528-9.28 8.569-9.28 13.61-9.28 17.139-5.459 17.139 0 17.139 5.459 13.61 9.28 8.569 9.28 3.528 9.28 0 5.459 0 0M30.245 0C30.245-12.01 21.046-20.996 8.569-20.996-3.907-20.996-13.106-12.01-13.106 0-13.106 12.01-3.907 20.996 8.569 20.996 21.046 20.996 30.245 12.01 30.245 0" fill="#053776"/>
<path transform="matrix(1,0,0,-1,1182.137,123.8634)" d="M0 0 7.813-25.741 14.87 .798H28.354L16.467-39.515H1.008L-5.209-19.316-11.384-39.515H-26.843L-38.731 .798H-25.247L-18.231-25.741-10.376 0Z" fill="#053776"/>
<path transform="matrix(1,0,0,-1,1228.5325,164.2179)" d="M0 0C-5.965 0-11.888 1.05-15.753 2.771L-14.45 13.228C-10.586 11.716-4.831 10.54-1.134 10.54 3.276 10.54 4.957 11.17 4.957 12.892 4.957 14.403 3.738 15.033-.462 15.705L-4.201 16.293C-12.603 17.595-16.383 21.416-16.383 28.555-16.383 36.743-9.157 41.992 2.143 41.992 7.31 41.992 12.056 41.11 15.921 39.389L14.912 29.101C12.351 30.15 6.343 31.242 2.856 31.242-1.639 31.242-3.78 30.402-3.78 28.639-3.78 27.211-2.143 26.455 2.437 25.741L6.343 25.111C14.114 23.852 17.728 20.072 17.728 13.186 17.728 5.123 10.88 0 0 0" fill="#053776"/>
<path transform="matrix(1,0,0,-1,1265.384,136.67099)" d="M0 0H5.167L13.064 13.605H27.81L15.585-5.921 30.834-26.707H14.997L4.747-11.548H0V-26.707H-13.232V32.418H0Z" fill="#053776"/>
<path transform="matrix(1,0,0,-1,1308.2991,143.2638)" d="M0 0C0-5.459 3.57-9.28 8.695-9.28 13.82-9.28 17.391-5.459 17.391 0 17.391 5.459 13.82 9.238 8.695 9.28 3.57 9.28 0 5.459 0 0M17.853-20.114 17.433-15.873C15.122-18.729 11.216-20.954 5.545-20.954-5.209-20.954-13.106-12.052-13.106 0-13.106 12.052-5.209 21.038 5.545 21.038 11.216 21.038 15.122 18.771 17.433 15.957L17.853 20.198H30.665V-20.114Z" fill="#053776"/>
<path transform="matrix(1,0,0,-1,0,425.197)" d="M425.095 206.672H433.409V166.359H425.095ZM424.129 220.193C424.129 223.216 426.229 225.316 429.252 225.316 432.276 225.316 434.417 223.216 434.417 220.193 434.417 217.17 432.276 215.07 429.252 215.07 426.229 215.07 424.129 217.17 424.129 220.193" fill="#053776"/>
<path transform="matrix(1,0,0,-1,479.136,225.2022)" d="M0 0C2.436 3.947 7.475 7.517 14.403 7.517 25.153 7.517 30.948 .63 30.948-9.154V-33.636H22.592V-10.918C22.592-4.241 19.022-.378 13.102-.378 7.223-.378 2.394-4.073 2.184-10.414V-33.636H-6.173V-10.918C-6.173-4.241-9.742-.378-15.663-.378-21.668-.378-26.581-4.241-26.581-10.918V-33.636H-34.938V6.677H-26.581V1.596C-25.279 3.653-21.458 7.517-14.361 7.517-7.433 7.517-2.562 4.661 0 0" fill="#053776"/>
<path transform="matrix(1,0,0,-1,524.5393,249.3897)" d="M0 0C2.939 0 5.165-2.31 5.165-5.165 5.165-8.021 2.939-10.288 0-10.288-2.939-10.288-5.123-8.021-5.123-5.165-5.123-2.31-2.939 0 0 0" fill="#053776"/>
<path transform="matrix(1,0,0,-1,574.8997,210.0851)" d="M0 0H-18.854V8.272H27.547V0H8.776V-48.753H0Z" fill="#053776"/>
<path transform="matrix(1,0,0,-1,619.5735,225.1603)" d="M0 0C-7.769 0-12.934-5.879-12.934-13.312-12.934-20.744-7.769-27.043 0-27.043 7.769-27.043 13.312-20.744 13.312-13.312 13.312-5.879 7.727 0 0 0M-21.248-13.312C-21.248-.924-12.472 7.475-1.008 7.475 5.837 7.475 10.372 4.955 13.354 1.134V6.635H21.668V-33.678H13.354V-28.177C10.372-31.998 5.837-34.518-1.008-34.518-12.472-34.518-21.248-25.699-21.248-13.312" fill="#053776"/>
<path transform="matrix(1,0,0,-1,670.8489,225.1603)" d="M0 0C-7.769 0-12.934-5.879-12.934-13.312-12.934-20.744-7.769-27.043 0-27.043 7.769-27.043 13.312-20.744 13.312-13.312 13.312-5.879 7.727 0 0 0M-21.248-13.312C-21.248-.924-12.472 7.475-1.008 7.475 5.837 7.475 10.372 4.955 13.354 1.134V25.447H21.668V-33.678H13.354V-28.177C10.372-31.998 5.837-34.518-1.008-34.518-12.472-34.518-21.248-25.699-21.248-13.312" fill="#053776"/>
<path transform="matrix(1,0,0,-1,733.2102,235.07039)" d="M0 0C-.546 5.837-4.745 9.784-11.38 9.784-18.015 9.784-22.97 5.837-23.6 0ZM5.921-20.66C1.26-23.306-3.821-24.607-9.448-24.607-23.012-24.607-32.376-16.041-32.376-3.611-32.376 8.398-23.684 17.385-11.632 17.385 1.47 17.385 9.91 6.467 7.517-6.635H-23.852C-22.382-13.228-17.259-16.881-9.448-16.881-4.745-16.881-.714-15.663 4.661-13.102Z" fill="#053776"/>
<path transform="matrix(1,0,0,-1,777.3196,218.5255)" d="M0 0H8.272V-23.936C8.23-34.14 .756-41.152-10.078-41.152-20.996-41.152-28.471-34.266-28.471-24.187V0H-20.114V-22.76C-20.114-28.975-16.041-33.342-10.078-33.342-4.073-33.342 0-28.975 0-22.76Z" fill="#053776"/>
<path transform="matrix(1,0,0,-1,813.1926,235.4903)" d="M0 0C8.188-1.68 12.556-5.123 12.556-12.136 12.556-20.282 5.921-24.187-3.863-24.187-9.994-24.187-15.705-23.054-19.19-21.164L-18.183-13.983C-14.067-15.789-8.902-16.881-4.409-16.881 1.638-16.881 4.451-15.369 4.451-12.262 4.451-9.532 2.268-8.063-2.939-7.013L-8.902-5.795C-15.999-4.367-19.778-.294-19.778 5.921-19.778 12.766-13.06 17.805-2.981 17.805 1.974 17.805 7.223 16.839 10.582 15.369L9.7 8.146C6.425 9.574 1.638 10.498-2.562 10.498-8.65 10.498-11.674 8.776-11.674 5.795-11.674 3.275-9.784 2.016-4.703 .966Z" fill="#053776"/>
<path transform="matrix(1,0,0,-1,831.0764,251.90929)" d="M0 0 20.786 26.329H.42V33.384H30.234V26.455L9.448 .126H31.536V-6.929H0Z" fill="#053776"/>
<path transform="matrix(1,0,0,-1,887.5237,225.1603)" d="M0 0C-7.769 0-12.934-5.879-12.934-13.312-12.934-20.744-7.769-27.043 0-27.043 7.769-27.043 13.312-20.744 13.312-13.312 13.312-5.879 7.727 0 0 0M-21.248-13.312C-21.248-.924-12.472 7.475-1.008 7.475 5.837 7.475 10.372 4.955 13.354 1.134V6.635H21.668V-33.678H13.354V-28.177C10.372-31.998 5.837-34.518-1.008-34.518-12.472-34.518-21.248-25.699-21.248-13.312" fill="#053776"/>
<path transform="matrix(1,0,0,-1,964.969,226.8819)" d="M0 0 14.403 25.069H24.481L7.097-4.367 28.009-31.956H16.923L-.84-7.979H-12.556V-31.956H-21.374V25.069H-12.556V0Z" fill="#053776"/>
<path transform="matrix(1,0,0,-1,1013.8645,251.8673)" d="M0 0C7.601 0 13.102 5.753 13.102 13.186 13.102 20.618 7.601 26.371 0 26.371-7.601 26.371-13.102 20.618-13.102 13.186-13.102 5.753-7.601 0 0 0M0 34.182C12.262 34.182 21.416 24.985 21.416 13.186 21.416 1.386 12.262-7.811 0-7.811-12.262-7.811-21.416 1.386-21.416 13.186-21.416 24.985-12.262 34.182 0 34.182" fill="#053776"/>
<path transform="matrix(1,0,0,-1,1059.9963,212.0167)" d="M0 0H-7.181L-.798 14.025H8.524ZM.84-23.474C9.028-25.153 13.396-28.597 13.396-35.609 13.396-43.756 6.761-47.661-3.023-47.661-9.154-47.661-14.865-46.527-18.351-44.638L-17.343-37.457C-13.228-39.263-8.063-40.354-3.569-40.354 2.478-40.354 5.291-38.843 5.291-35.735 5.291-33.006 3.107-31.536-2.1-30.486L-8.063-29.269C-15.159-27.841-18.938-23.768-18.938-17.553-18.938-10.708-12.22-5.669-2.142-5.669 2.813-5.669 8.063-6.635 11.422-8.104L10.54-15.327C7.265-13.899 2.478-12.976-1.722-12.976-7.811-12.976-10.834-14.697-10.834-17.679-10.834-20.198-8.944-21.458-3.863-22.508Z" fill="#053776"/>
<path transform="matrix(1,0,0,-1,1101.6165,217.6856)" d="M0 0C5.333 0 10.204-1.638 12.094-2.688L11.212-10.12C8.356-8.818 4.619-7.727 0-7.727-8.608-7.727-14.529-13.102-14.529-20.786-14.529-28.723-8.608-34.266 .084-34.266 3.863-34.266 8.188-33.258 11.38-31.788L12.64-39.347C8.776-40.858 4.619-41.992 .084-41.992-13.521-41.992-22.844-33.384-22.844-20.786-22.844-8.44-13.563 0 0 0" fill="#053776"/>
<path transform="matrix(1,0,0,-1,0,425.197)" d="M1121.541 206.672H1129.855V166.359H1121.541ZM1120.575 220.193C1120.575 223.216 1122.675 225.316 1125.698 225.316 1128.722 225.316 1130.864 223.216 1130.864 220.193 1130.864 217.17 1128.722 215.07 1125.698 215.07 1122.675 215.07 1120.575 217.17 1120.575 220.193" fill="#053776"/>
<path transform="matrix(1,0,0,-1,1168.5422,218.5255)" d="M0 0H8.272V-23.936C8.23-34.14 .756-41.152-10.078-41.152-20.996-41.152-28.471-34.266-28.471-24.187V0H-20.114V-22.76C-20.114-28.975-16.041-33.342-10.078-33.342-4.073-33.342 0-28.975 0-22.76Z" fill="#053776"/>
<path transform="matrix(1,0,0,-1,1204.4153,235.4903)" d="M0 0C8.188-1.68 12.556-5.123 12.556-12.136 12.556-20.282 5.921-24.187-3.863-24.187-9.994-24.187-15.705-23.054-19.19-21.164L-18.183-13.983C-14.067-15.789-8.902-16.881-4.409-16.881 1.638-16.881 4.451-15.369 4.451-12.262 4.451-9.532 2.268-8.063-2.939-7.013L-8.902-5.795C-15.999-4.367-19.778-.294-19.778 5.921-19.778 12.766-13.06 17.805-2.981 17.805 1.974 17.805 7.223 16.839 10.582 15.369L9.7 8.146C6.425 9.574 1.638 10.498-2.562 10.498-8.65 10.498-11.674 8.776-11.674 5.795-11.674 3.275-9.784 2.016-4.703 .966Z" fill="#053776"/>
<path transform="matrix(1,0,0,-1,1222.2991,251.90929)" d="M0 0 20.786 26.329H.42V33.384H30.234V26.455L9.448 .126H31.536V-6.929H0Z" fill="#053776"/>
<path transform="matrix(1,0,0,-1,1269.4114,234.3985)" d="M0 0H7.433L17.679 15.873H26.833L13.983-3.653 29.017-24.439H19.526L7.181-7.055H0V-24.439H-8.314V34.686H0Z" fill="#053776"/>
<path transform="matrix(1,0,0,-1,0,425.197)" d="M1303.919 206.672H1312.2329V166.359H1303.919ZM1302.953 220.193C1302.953 223.216 1305.053 225.316 1308.076 225.316 1311.1 225.316 1313.241 223.216 1313.241 220.193 1313.241 217.17 1311.1 215.07 1308.076 215.07 1305.053 215.07 1302.953 217.17 1302.953 220.193" fill="#053776"/>
</g>
<g id="layer_1" data-name="">
</g>
</g>
</svg>
